<svg width="37" height="37" viewBox="0 0 37 37" fill="none" xmlns="http://www.w3.org/2000/svg">
<path d="M23.5704 22.6266C23.3442 22.5526 21.914 21.9079 22.8077 19.1913H22.7948C25.1244 16.792 26.9047 12.9312 26.9047 9.13014C26.9047 3.28556 23.0183 0.22168 18.5014 0.22168C13.9817 0.22168 10.1167 3.28414 10.1167 9.13014C10.1167 12.9468 11.887 16.8233 14.2308 19.2169C15.1444 21.6134 13.5107 22.5028 13.1692 22.6266C8.43885 24.3386 2.88885 27.4565 2.88885 30.5346V31.6888C2.88885 35.8826 11.0203 36.836 18.5455 36.836C26.0822 36.836 34.1112 35.8826 34.1112 31.6888V30.5346C34.1112 27.364 28.5341 24.2703 23.5704 22.6266ZM15.7207 35.0202C15.7207 31.3928 18.0304 26.4959 18.0304 26.4959L16.4323 25.2422C16.4323 24.044 18.5 22.7903 18.5 22.7903C18.5 22.7903 20.562 24.0639 20.562 25.2422L18.9696 26.4959C18.9696 26.4959 21.2793 31.3743 21.2793 35.06C21.2793 35.6378 15.7207 35.504 15.7207 35.0202Z" fill="white"/>
</svg>
