<svg width="26" height="34" viewBox="0 0 26 34" fill="none" xmlns="http://www.w3.org/2000/svg">
<path d="M25.0714 5.3125H20.2904L18.3172 1.54395C17.7647 0.586168 16.9116 0 15.9366 0H10.0634C9.08839 0 8.18303 0.586168 7.68393 1.54395L5.70955 5.3125H0.928571C0.413504 5.3125 0 5.78598 0 6.375V7.4375C0 8.02852 0.413504 8.5 0.928571 8.5H1.85714V29.75C1.85714 32.0975 3.51987 34 5.57143 34H20.4286C22.4801 34 24.1429 32.0975 24.1429 29.75V8.5H25.0714C25.5879 8.5 26 8.02852 26 7.4375V6.375C26 5.78598 25.5879 5.3125 25.0714 5.3125ZM9.97634 3.37875C10.0344 3.26254 10.1504 3.1875 10.2723 3.1875H15.7277C15.851 3.1875 15.9671 3.26221 16.0251 3.37842L17.0393 5.3125H8.96071L9.97634 3.37875ZM20.4286 30.8125H5.57143C5.05857 30.8125 4.64286 30.3368 4.64286 29.75V8.5H21.3571V29.75C21.3571 30.3344 20.9393 30.8125 20.4286 30.8125ZM13 27.625C13.5133 27.625 13.9286 27.1498 13.9286 26.5625V12.75C13.9286 12.1627 13.5133 11.6875 13 11.6875C12.4867 11.6875 12.0714 12.1656 12.0714 12.75V26.5625C12.0714 27.1469 12.4893 27.625 13 27.625ZM8.35714 27.625C8.86786 27.625 9.28571 27.1469 9.28571 26.5625V12.75C9.28571 12.1627 8.87041 11.6875 8.35714 11.6875C7.84387 11.6875 7.42857 12.1656 7.42857 12.75V26.5625C7.42857 27.1469 7.84643 27.625 8.35714 27.625ZM17.6429 27.625C18.1561 27.625 18.5714 27.1498 18.5714 26.5625V12.75C18.5714 12.1627 18.1561 11.6875 17.6429 11.6875C17.1296 11.6875 16.7143 12.1656 16.7143 12.75V26.5625C16.7143 27.1469 17.1321 27.625 17.6429 27.625Z" fill="white"/>
</svg>
