<svg width="24" height="32" viewBox="0 0 24 32" fill="none" xmlns="http://www.w3.org/2000/svg">
<path d="M12 27.6875C11.5987 27.685 11.2024 27.5986 10.8364 27.4339C10.4705 27.2693 10.143 27.0299 9.87499 26.7313C6.52812 23.0231 0.918117 16.1063 0.918117 11.4738C0.878354 8.49212 2.02265 5.6164 4.10007 3.47724C6.1775 1.33807 9.01847 0.110058 12 0.0625C14.9815 0.110058 17.8225 1.33807 19.8999 3.47724C21.9773 5.6164 23.1216 8.49212 23.0819 11.4738C23.0819 16.0956 17.4719 23.0231 14.125 26.7313C13.857 27.0299 13.5295 27.2693 13.1635 27.4339C12.7976 27.5986 12.4013 27.685 12 27.6875ZM12 2.1875C9.58205 2.23498 7.28153 3.23907 5.60261 4.97974C3.92368 6.72041 3.00328 9.05567 3.04312 11.4738C3.04312 14.2894 6.23062 19.4637 11.4581 25.2862C11.5266 25.3583 11.609 25.4156 11.7003 25.4548C11.7917 25.494 11.89 25.5142 11.9894 25.5142C12.0887 25.5142 12.1871 25.494 12.2784 25.4548C12.3697 25.4156 12.4521 25.3583 12.5206 25.2862C17.8331 19.4319 20.9356 14.2575 20.9356 11.4738C20.9755 9.05927 20.058 6.72717 18.3837 4.98711C16.7093 3.24705 14.4142 2.24052 12 2.1875Z" fill="white"/>
<path d="M12 16.7539C10.8879 16.7539 9.80078 16.424 8.87625 15.806C7.95171 15.1879 7.23131 14.3094 6.80621 13.2818C6.38111 12.2541 6.27043 11.1235 6.48816 10.0329C6.7059 8.9423 7.24227 7.94082 8.02939 7.15518C8.81651 6.36955 9.819 5.83508 10.91 5.6194C12.001 5.40373 13.1314 5.51656 14.1583 5.9436C15.1851 6.37064 16.0622 7.0927 16.6785 8.01841C17.2949 8.94411 17.6227 10.0318 17.6206 11.1439C17.615 12.6319 17.0207 14.0572 15.9675 15.1084C14.9144 16.1595 13.488 16.7511 12 16.7539ZM12 7.64832C11.3086 7.64832 10.6328 7.85334 10.0579 8.23744C9.48308 8.62155 9.03504 9.16749 8.77046 9.80623C8.50589 10.445 8.43666 11.1478 8.57154 11.8259C8.70642 12.504 9.03935 13.1269 9.52822 13.6157C10.0171 14.1046 10.64 14.4375 11.318 14.5724C11.9961 14.7073 12.699 14.6381 13.3377 14.3735C13.9765 14.1089 14.5224 13.6609 14.9065 13.086C15.2906 12.5112 15.4956 11.8353 15.4956 11.1439C15.4928 10.2177 15.1236 9.33021 14.4687 8.67526C13.8137 8.02031 12.9262 7.65113 12 7.64832ZM16.25 31.9371H7.75C6.34104 31.9371 4.98978 31.3774 3.9935 30.3811C2.99721 29.3848 2.4375 28.0335 2.4375 26.6246C2.4375 26.3428 2.54944 26.0725 2.7487 25.8733C2.94796 25.674 3.21821 25.5621 3.5 25.5621C3.78179 25.5621 4.05204 25.674 4.2513 25.8733C4.45056 26.0725 4.5625 26.3428 4.5625 26.6246C4.5625 27.47 4.89832 28.2807 5.4961 28.8785C6.09387 29.4762 6.90462 29.8121 7.75 29.8121H16.25C17.0954 29.8121 17.9061 29.4762 18.5039 28.8785C19.1017 28.2807 19.4375 27.47 19.4375 26.6246C19.4375 26.3428 19.5494 26.0725 19.7487 25.8733C19.948 25.674 20.2182 25.5621 20.5 25.5621C20.7818 25.5621 21.052 25.674 21.2513 25.8733C21.4506 26.0725 21.5625 26.3428 21.5625 26.6246C21.5625 28.0335 21.0028 29.3848 20.0065 30.3811C19.0102 31.3774 17.659 31.9371 16.25 31.9371Z" fill="white"/>
</svg>
