<svg width="41" height="38" viewBox="0 0 41 38" fill="none" xmlns="http://www.w3.org/2000/svg">
<path d="M21.2516 0.415317C20.9915 0.0429209 20.5689 -0.106037 20.1787 0.0801606L4.57363 6.41089C4.34606 6.48537 4.18351 6.67157 4.05346 6.89501L0.152186 14.3429C-0.0753881 14.7526 -0.0428775 15.2739 0.217208 15.6091C0.444782 15.8698 0.704867 16.0187 0.997463 16.0187C1.095 16.0187 1.22504 15.9815 1.32257 15.9442L16.9277 9.6135C17.1553 9.53902 17.3178 9.35282 17.4478 9.12938L21.3491 1.68146C21.5442 1.30907 21.5117 0.787713 21.2516 0.415317Z" fill="white"/>
<path d="M36.1089 7.45378L20.5038 1.12305L4.89874 7.45378V29.7975L20.5038 36.1283L36.1089 29.7975V7.45378Z" fill="#2E2E2E"/>
<path d="M36.1089 7.45378L20.5038 1.12305L4.89874 7.45378V29.7975L20.5038 36.1283L36.1089 29.7975V7.45378ZM36.1089 7.45378L20.5038 1.12305L36.1089 7.45378Z" fill="#2E2E2E"/>
<path d="M20.5039 37.2449C20.4063 37.2449 20.2763 37.2076 20.1787 37.1704L4.57364 30.8397C4.18351 30.6907 3.92342 30.2438 3.92342 29.797V7.4532C3.92342 6.96908 4.18351 6.55944 4.57364 6.41049L20.1787 0.0797533C20.6989 -0.143684 21.2516 0.191472 21.4142 0.750066C21.6092 1.3459 21.3166 1.97897 20.829 2.16517L5.87406 8.23523V29.0149L20.829 35.085C21.3491 35.3084 21.6092 35.9415 21.4142 36.5001C21.2841 36.947 20.894 37.2449 20.5039 37.2449Z" fill="white"/>
<path d="M36.1089 7.45378L20.5038 1.12305L36.1089 7.45378ZM36.1089 7.45378L20.5038 1.12305L36.1089 7.45378ZM20.5038 13.7845L4.89874 7.45378L20.5038 13.7845ZM40.0102 14.9017L24.4051 21.2324L20.5038 13.7845L36.1089 7.45378L40.0102 14.9017Z" fill="#2E2E2E"/>
<path d="M40.8555 14.343L36.9542 6.89506L36.9217 6.85782C36.9217 6.82058 36.8892 6.82058 36.8892 6.78334C36.8892 6.7461 36.8567 6.7461 36.8567 6.70886C36.8567 6.70886 36.8567 6.70886 36.8567 6.67162C36.8242 6.63438 36.8242 6.63438 36.7917 6.59714L36.7592 6.5599L36.7267 6.52266H36.6942L36.6617 6.48542C36.6291 6.44818 36.5966 6.44818 36.5641 6.44818C36.5316 6.44818 36.5316 6.41094 36.4991 6.41094L20.894 0.0802085C20.829 0.0429689 20.7639 0.0429688 20.6989 0.0429688H20.6664C20.6014 0.0429688 20.5364 0.0429688 20.5039 0.0429688C20.4714 0.0429688 20.4714 0.0429688 20.4388 0.0429688C20.3738 0.0429688 20.3088 0.0802085 20.2438 0.0802085L4.63867 6.41094C4.24854 6.5599 3.98846 7.00677 3.98846 7.45365V29.7974C3.98846 30.2815 4.24854 30.6912 4.63867 30.8401L20.2438 37.1709C20.2763 37.1709 20.3088 37.2081 20.3413 37.2081C20.3738 37.2081 20.3738 37.2081 20.4063 37.2081C20.4388 37.2081 20.4714 37.2081 20.5364 37.2081H20.5689C20.6339 37.2081 20.6664 37.2081 20.7314 37.2081H20.7639C20.7965 37.2081 20.829 37.1709 20.8615 37.1709L36.4666 30.8401C36.8567 30.6912 37.1168 30.2443 37.1168 29.7974V17.2849L40.3679 15.9815C40.6279 15.8698 40.8555 15.6091 40.9531 15.3112C41.0506 15.0133 40.9856 14.6037 40.8555 14.343ZM33.183 7.45365L21.4792 12.2203V2.68698L33.183 7.45365ZM5.87407 9.01771L19.5285 14.5664V34.5268L5.87407 28.9781V9.01771ZM35.1337 29.0154L21.4792 34.5641V17.8063L23.5599 21.7909C23.7549 22.1633 24.08 22.3495 24.4051 22.3495C24.5027 22.3495 24.6327 22.3123 24.7302 22.275L35.1337 18.0669V29.0154ZM24.8278 19.8917L21.9343 14.3802L35.6538 8.79427L38.5473 14.3057L24.8278 19.8917Z" fill="white"/>
</svg>
