<svg width="32" height="32" viewBox="0 0 32 32" fill="none" xmlns="http://www.w3.org/2000/svg">
<path d="M12.9375 2.00006C12.9375 1.4588 12.6053 0.973051 12.1008 0.776841C11.5964 0.580613 11.0232 0.714174 10.6575 1.11317L1.03251 11.6132C0.680794 11.9968 0.589041 12.5522 0.798621 13.0285C1.00822 13.505 1.47953 13.8125 2.00003 13.8125H30C30.7248 13.8125 31.3125 13.2249 31.3125 12.5C31.3125 11.7752 30.7248 11.1876 30 11.1876H12.9375V2.00006Z" fill="white"/>
<path d="M19.0625 30V20.8125H2.00003C1.27515 20.8125 0.687531 20.2248 0.687531 19.5C0.687531 18.7751 1.27515 18.1875 2.00003 18.1875H30C30.5204 18.1875 30.9919 18.4951 31.2014 18.9715C31.411 19.448 31.3193 20.0033 30.9676 20.3869L21.3426 30.8869C20.9768 31.2859 20.4037 31.4194 19.8992 31.2232C19.3948 31.0271 19.0625 30.5413 19.0625 30Z" fill="white"/>
</svg>
